<?xml version="1.0" encoding="UTF-8"?>
<svg width="146px" height="61px" viewBox="0 0 146 61" version="1.1" xmlns="http://www.w3.org/2000/svg" xmlns:xlink="http://www.w3.org/1999/xlink">
    <title>orignal</title>
    <g id="Page-1" stroke="none" stroke-width="1" fill="none" fill-rule="evenodd">
        <g id="Artboard-2-Copy-7" transform="translate(-1038.000000, -336.000000)" fill="#FFFFFF">
            <g id="orignal" transform="translate(1038.000000, 336.000000)">
                <path d="M63.9931579,30.5789474 L63.9931579,7.98421053 L72.9457895,7.98421053 L72.9457895,0.736842105 L46.77,0.736842105 L46.77,7.98421053 L55.7226316,7.98421053 L55.7226316,30.5789474 L63.9931579,30.5789474 Z M94.0976113,31.1331579 C96.2291903,31.1331579 98.1547166,30.8631579 99.8741903,30.3231579 C101.593664,29.7831579 103.057348,28.9518421 104.265243,27.8292105 C105.473138,26.7065789 106.411032,25.2713158 107.078927,23.5234211 C107.746822,21.7755263 108.080769,19.6936842 108.080769,17.2778947 L108.080769,17.2778947 L108.080769,0.736842105 L99.6823482,0.736842105 L99.6823482,17.5336842 C99.6823482,19.6368421 99.1849798,21.1857895 98.1902429,22.1805263 C97.1955061,23.1752632 95.8597166,23.6726316 94.1828745,23.6726316 C92.5060324,23.6726316 91.1702429,23.1539474 90.1755061,22.1165789 C89.1807692,21.0792105 88.6834008,19.4805263 88.6834008,17.3205263 L88.6834008,17.3205263 L88.6834008,0.736842105 L80.2849798,0.736842105 L80.2849798,17.4910526 C80.2849798,19.8215789 80.6047166,21.8465789 81.2441903,23.5660526 C81.883664,25.2855263 82.8002429,26.7065789 83.9939271,27.8292105 C85.1876113,28.9518421 86.637085,29.7831579 88.3423482,30.3231579 C90.0476113,30.8631579 91.9660324,31.1331579 94.0976113,31.1331579 Z M125.353117,30.5789474 L125.353117,22.8626316 L128.37996,19.4947368 L135.883117,30.5789474 L145.816275,30.5789474 L134.135223,13.5689474 L145.432591,0.736842105 L135.627328,0.736842105 L125.353117,12.8442105 L125.353117,0.736842105 L117.082591,0.736842105 L117.082591,30.5789474 L125.353117,30.5789474 Z" id="TUK" fill-rule="nonzero"></path>
                <path d="M33.6842105,0.578947368 C36.4456343,0.578947368 38.6842105,2.81752362 38.6842105,5.57894737 L38.6842105,25.5789474 C38.6842105,28.3403711 36.4456343,30.5789474 33.6842105,30.5789474 L28.9777942,30.5798426 C26.1533931,34.8600446 21.301243,37.6842105 15.7894737,37.6842105 C7.06918816,37.6842105 0,30.6150224 0,21.8947368 C0,15.7303351 3.5325637,10.3910078 8.68375705,7.79068902 L8.68421053,5.57894737 C8.68421053,2.81752362 10.9227868,0.578947368 13.6842105,0.578947368 L33.6842105,0.578947368 Z M15.7894737,6.10526316 C13.2335899,6.10526316 10.8195444,6.71254505 8.68375705,7.79068902 L8.68390324,9.5855037 C4.43653665,12.0426144 1.57894737,16.6349627 1.57894737,21.8947368 C1.57894737,29.7429938 7.94121671,36.1052632 15.7894737,36.1052632 C20.3669411,36.1052632 24.4389107,33.9409697 27.037896,30.5798693 L28.9777942,30.5798426 C30.6219371,28.0882475 31.5789474,25.103253 31.5789474,21.8947368 C31.5789474,13.1744513 24.5097592,6.10526316 15.7894737,6.10526316 Z M15.7894737,7.68421053 C23.6377307,7.68421053 30,14.0464799 30,21.8947368 C30,25.1655264 28.8949783,28.1782242 27.037896,30.5798693 L13.6842105,30.5789474 C10.9227868,30.5789474 8.68421053,28.3403711 8.68421053,25.5789474 L8.68390324,9.5855037 C10.7741519,8.37629038 13.2009908,7.68421053 15.7894737,7.68421053 Z" id="Combined-Shape"></path>
                <path d="M6.02282072,60.5789474 L6.02282072,48.4500411 L10.3063322,48.4500411 L10.3063322,47.0530428 L0.166529605,47.0530428 L0.166529605,48.4500411 L4.45004112,48.4500411 L4.45004112,60.5789474 L6.02282072,60.5789474 Z M14.2856497,60.7639803 C15.0381168,60.7639803 15.6656867,60.6514186 16.1683594,60.4262952 C16.6710321,60.2011719 17.1752467,59.7709704 17.6810033,59.1356908 L17.6810033,59.1356908 L17.7550164,59.1356908 L18.0603207,60.5789474 L19.198273,60.5789474 L19.198273,53.6587171 C19.198273,52.4745066 18.9068462,51.6141036 18.3239926,51.0775082 C17.741139,50.5409128 16.8452714,50.2726151 15.6363898,50.2726151 C15.0381168,50.2726151 14.4413857,50.3497122 13.8461965,50.5039063 C13.2510074,50.6581003 12.7036184,50.8708882 12.2040296,51.1422697 L12.2040296,51.1422697 L12.6758635,52.3172286 C13.7428865,51.7991365 14.6988898,51.5400905 15.5438734,51.5400905 C16.2963405,51.5400905 16.8437294,51.7297492 17.1860403,52.1090666 C17.5283512,52.488384 17.6995066,53.0758635 17.6995066,53.8715049 L17.6995066,53.8715049 L17.6995066,54.5006168 L15.9787007,54.5561266 C12.7036184,54.6548109 11.0660773,55.7280016 11.0660773,57.775699 C11.0660773,58.7317023 11.3513363,59.46875 11.9218544,59.9868421 C12.4923725,60.5049342 13.2803043,60.7639803 14.2856497,60.7639803 Z M14.5909539,59.4965049 C13.9865132,59.4965049 13.5162212,59.3515625 13.1800781,59.0616776 C12.843935,58.7717928 12.6758635,58.349301 12.6758635,57.7942023 C12.6758635,57.0849095 12.9457031,56.5621916 13.4853824,56.2260485 C14.0250617,55.8899054 14.9055099,55.7002467 16.126727,55.6570724 L16.126727,55.6570724 L17.6625,55.5923109 L17.6625,56.5082237 C17.6625,57.4518914 17.3895765,58.1858553 16.8437294,58.7101151 C16.2978824,59.234375 15.5469572,59.4965049 14.5909539,59.4965049 Z M24.3710526,48.7183388 C24.6177632,48.7183388 24.830551,48.6335321 25.0094161,48.4639186 C25.1882813,48.2943051 25.2777138,48.036801 25.2777138,47.6914063 C25.2777138,47.3460115 25.1882813,47.0900493 25.0094161,46.9235197 C24.830551,46.7569901 24.6177632,46.6737253 24.3710526,46.6737253 C24.1120066,46.6737253 23.8961349,46.7554482 23.7234375,46.9188939 C23.5507401,47.0823396 23.4643914,47.3398438 23.4643914,47.6914063 C23.4643914,48.036801 23.5507401,48.2943051 23.7234375,48.4639186 C23.8961349,48.6335321 24.1120066,48.7183388 24.3710526,48.7183388 Z M25.1296875,60.5789474 L25.1296875,50.4391447 L23.5939145,50.4391447 L23.5939145,60.5789474 L25.1296875,60.5789474 Z M31.1536184,60.5789474 L31.1536184,46.1833882 L29.6178454,46.1833882 L29.6178454,60.5789474 L31.1536184,60.5789474 Z M38.7688322,60.5789474 L40.6839227,54.6486431 C40.8689556,54.0627056 41.0848273,53.2300576 41.3315378,52.150699 L41.3315378,52.150699 L41.405551,52.150699 C41.7262747,53.4397615 41.9452303,54.2662418 42.0624178,54.6301398 L42.0624178,54.6301398 L43.9219984,60.5789474 L45.7445724,60.5789474 L48.5478207,50.4391447 L46.9565378,50.4391447 C45.7784951,54.9539474 45.1355058,57.4426398 45.0275699,57.905222 C44.919634,58.3678043 44.8533306,58.7101151 44.8286595,58.9321546 L44.8286595,58.9321546 L44.7546464,58.9321546 C44.6312911,58.2105263 44.3969161,57.3192845 44.0515214,56.2584293 L44.0515214,56.2584293 L42.238199,50.4391447 L40.572903,50.4391447 L38.7133224,56.2584293 C38.6023026,56.5853207 38.4712377,57.0278577 38.3201275,57.5860403 C38.1690173,58.1442229 38.0595395,58.5990954 37.9916941,58.9506579 L37.9916941,58.9506579 L37.9176809,58.9506579 C37.8683388,58.4880757 37.6725123,57.5906661 37.3302015,56.2584293 C36.9878906,54.9261924 36.4898438,52.9864309 35.8360609,50.4391447 L35.8360609,50.4391447 L34.2262747,50.4391447 L36.9925164,60.5789474 L38.7688322,60.5789474 Z M52.3883635,48.7183388 C52.635074,48.7183388 52.8478618,48.6335321 53.026727,48.4639186 C53.2055921,48.2943051 53.2950247,48.036801 53.2950247,47.6914063 C53.2950247,47.3460115 53.2055921,47.0900493 53.026727,46.9235197 C52.8478618,46.7569901 52.635074,46.6737253 52.3883635,46.6737253 C52.1293174,46.6737253 51.9134457,46.7554482 51.7407484,46.9188939 C51.568051,47.0823396 51.4817023,47.3398438 51.4817023,47.6914063 C51.4817023,48.036801 51.568051,48.2943051 51.7407484,48.4639186 C51.9134457,48.6335321 52.1293174,48.7183388 52.3883635,48.7183388 Z M53.1469984,60.5789474 L53.1469984,50.4391447 L51.6112253,50.4391447 L51.6112253,60.5789474 L53.1469984,60.5789474 Z M59.1709293,60.5789474 L59.1709293,55.2592516 C59.1709293,53.9393503 59.4176398,52.9925987 59.9110609,52.4189967 C60.4044819,51.8453947 61.1816201,51.5585938 62.2424753,51.5585938 C63.0442845,51.5585938 63.6333059,51.7621299 64.0095395,52.1692023 C64.385773,52.5762747 64.5738898,53.193051 64.5738898,54.0195313 L64.5738898,54.0195313 L64.5738898,60.5789474 L66.1096628,60.5789474 L66.1096628,53.9640214 C66.1096628,52.6687911 65.8012747,51.7266653 65.1844984,51.1376439 C64.567722,50.5486225 63.6487253,50.2541118 62.4275082,50.2541118 C61.730551,50.2541118 61.0983553,50.3913446 60.5309211,50.66581 C59.9634868,50.9402755 59.5224918,51.3273026 59.2079359,51.8268914 L59.2079359,51.8268914 L59.1339227,51.8268914 L58.8841283,50.4391447 L57.6351563,50.4391447 L57.6351563,60.5789474 L59.1709293,60.5789474 Z M74.131949,60.7639803 C75.5443668,60.7639803 76.605222,60.248972 77.3145148,59.2189556 L77.3145148,59.2189556 L77.3977796,59.2189556 L77.6013158,60.5789474 L78.8502878,60.5789474 L78.8502878,46.1833882 L77.3145148,46.1833882 L77.3145148,50.3096217 L77.3515214,51.0219984 L77.4162829,51.7528783 L77.2960115,51.7528783 C76.5620477,50.7537007 75.5073602,50.2541118 74.131949,50.2541118 C72.8120477,50.2541118 71.7820313,50.7166941 71.0418997,51.6418586 C70.3017681,52.567023 69.9317023,53.8653372 69.9317023,55.536801 C69.9317023,57.2082648 70.3002262,58.4973273 71.0372738,59.4039885 C71.7743215,60.3106497 72.8058799,60.7639803 74.131949,60.7639803 Z M74.3262336,59.4780016 C73.4072368,59.4780016 72.7102796,59.1480263 72.2353618,58.4880757 C71.7604441,57.828125 71.5229852,56.8505345 71.5229852,55.5553043 C71.5229852,54.2785773 71.761986,53.2901933 72.2399877,52.5901521 C72.7179893,51.890111 73.4072368,51.5400905 74.3077303,51.5400905 C75.35625,51.5400905 76.1195107,51.8469367 76.5975123,52.4606291 C77.075514,53.0743215 77.3145148,54.0997122 77.3145148,55.536801 L77.3145148,55.536801 L77.3145148,55.8606086 C77.3145148,57.1311678 77.0785979,58.0517064 76.606764,58.6222245 C76.1349301,59.1927426 75.3747533,59.4780016 74.3262336,59.4780016 Z M94.7005757,60.7639803 C96.3288651,60.7639803 97.608676,60.3229852 98.5400082,59.4409951 C99.4713405,58.5590049 99.9370066,57.3470395 99.9370066,55.8050987 L99.9370066,55.8050987 L99.9370066,47.0530428 L98.364227,47.0530428 L98.364227,55.8606086 C98.364227,56.995477 98.0558388,57.8666735 97.4390625,58.4741982 C96.8222862,59.0817229 95.9433799,59.3854852 94.8023438,59.3854852 C93.6057977,59.3854852 92.6991365,59.0832648 92.0823602,58.478824 C91.4655839,57.8743832 91.1571957,57.0078125 91.1571957,55.8791118 L91.1571957,55.8791118 L91.1571957,47.0530428 L89.5844161,47.0530428 L89.5844161,55.7680921 C89.5844161,57.3223684 90.030037,58.5435855 90.9212788,59.4317434 C91.8125206,60.3199013 93.0722862,60.7639803 94.7005757,60.7639803 Z M106.321752,60.5789474 L106.321752,47.0530428 L104.748972,47.0530428 L104.748972,60.5789474 L106.321752,60.5789474 Z M118.989474,60.5789474 L118.989474,55.2777549 L120.404975,54.0195313 L125.336102,60.5789474 L127.186431,60.5789474 L121.542928,52.9278372 L126.982895,47.0530428 L125.123314,47.0530428 L118.989474,53.7604852 L118.989474,47.0530428 L117.416694,47.0530428 L117.416694,60.5789474 L118.989474,60.5789474 Z M131.85037,60.5789474 L131.85037,47.0530428 L130.27759,47.0530428 L130.27759,60.5789474 L131.85037,60.5789474 Z M140.955099,60.5789474 L140.955099,48.4500411 L145.23861,48.4500411 L145.23861,47.0530428 L135.098808,47.0530428 L135.098808,48.4500411 L139.382319,48.4500411 L139.382319,60.5789474 L140.955099,60.5789474 Z" id="TailwindUIKIT" fill-rule="nonzero"></path>
            </g>
        </g>
    </g>
</svg>